<svg xmlns="http://www.w3.org/2000/svg" width="512" height="512" viewBox="0 0 512.004 512.004">
  <defs/>
  <path fill="#2e294e" d="M396.171 429.493c-14.674 15.232-31.737 28.087-50.586 37.925.732 20.693 17.5 37.243 38.09 37.243 21.056 0 38.126-17.305 38.126-38.652 0-16.907-10.714-31.27-25.63-36.516zM115.982 429.493c-14.917 5.246-25.63 19.609-25.63 36.517 0 21.347 17.069 38.652 38.125 38.652 20.59 0 37.358-16.55 38.09-37.243-18.849-9.839-35.912-22.693-50.585-37.926z" class="active-path" data-old_color="#00c2fb" data-original="#00C2FB"/>
  <path fill="#501078" d="M388.169 484.247c-4.295-8.125-1.465-18.188 6.393-22.955 7.593-4.606 14.843-9.731 21.723-15.305-4.569-7.626-11.667-13.524-20.115-16.495-14.674 15.232-31.737 28.087-50.586 37.926.733 20.693 17.5 37.243 38.09 37.243 6.948 0 13.455-1.893 19.065-5.185-6.142-3.601-11.211-8.875-14.57-15.229zM128.46 466.01c0-7.329 2.015-14.177 5.51-20.014-6.327-5.125-12.336-10.635-17.989-16.503-14.917 5.246-25.63 19.609-25.63 36.517 0 21.347 17.07 38.652 38.125 38.652 6.944 0 13.45-1.888 19.056-5.177-11.397-6.683-19.072-19.166-19.072-33.475z" data-old_color="#00abf2" data-original="#00ABF2"/>
  <path fill="#d9e7ec" d="M241.03 59.827v42.167c4.966-.446 9.984-.673 15.046-.673 5.063 0 10.08.227 15.046.673V59.827z" data-original="#D9E7EC"/>
  <path fill="#e8f9fc" d="M462.786 84.897l11.544-12.93c4.005-4.486 3.762-11.237-.543-15.081l-6.859-6.124c-4.305-3.843-11.041-3.323-15.046 1.163l-11.544 12.93z" data-original="#E8F9FC"/>
  <path fill="#d9e7ec" d="M462.966 62.898c3.17-3.551 7.649-5.187 11.939-4.819-.339-.419-.703-.822-1.117-1.192l-6.859-6.124c-4.305-3.843-11.041-3.323-15.046 1.163l-11.544 12.93 11.618 10.373z" data-original="#D9E7EC"/>
  <path fill="#e8f9fc" d="M48.985 84.471l-11.31-12.668c-3.924-4.395-3.615-11.073.69-14.916l6.859-6.124c4.305-3.843 10.975-3.396 14.899.998l11.31 12.668z" data-original="#E8F9FC"/>
  <path fill="#d9e7ec" d="M51.843 64.313c-3.992-4.471-4.842-10.623-2.709-15.723-1.408.419-2.747 1.133-3.91 2.172l-6.859 6.124c-4.305 3.843-4.614 10.521-.69 14.916l11.31 12.668L60.59 74.111z" data-original="#D9E7EC"/>
  <path fill="#e8f9fc" d="M395.38 160.156l26.573-29.283-22.448-20.042-26.564 29.273c7.985 6.108 15.489 12.81 22.439 20.052z" data-original="#E8F9FC"/>
  <path fill="#d9e7ec" d="M411.935 121.928l-12.429-11.097-26.564 29.273c7.984 6.108 15.489 12.811 22.438 20.052l10.442-11.507c-.973-.855-1.952-1.701-2.94-2.539-3.977-3.374-4.406-9.35-.902-13.212z" data-original="#D9E7EC"/>
  <path fill="#e8f9fc" d="M139.211 140.104l-26.564-29.273-22.448 20.042 26.573 29.283c6.95-7.242 14.455-13.944 22.439-20.052z" data-original="#E8F9FC"/>
  <path fill="#d9e7ec" d="M120.211 139.702c-4.414-4.865-4.018-12.395.882-16.769l1.401-1.251-9.847-10.851-22.448 20.042 26.573 29.283c3.763-3.921 7.701-7.669 11.777-11.265z" data-original="#D9E7EC"/>
  <circle cx="256.076" cy="293.717" r="195.821" fill="#753679" data-old_color="#62ddfc" data-original="#62DDFC"/>
  <path fill="#501078" d="M106.648 293.717c0-100.299 75.411-182.972 172.625-194.448-7.609-.898-15.347-1.374-23.197-1.374-108.149 0-195.821 87.672-195.821 195.821s87.672 195.821 195.821 195.821c7.85 0 15.588-.476 23.197-1.374-97.214-11.474-172.625-94.146-172.625-194.446z" data-old_color="#00d2fc" data-original="#00D2FC"/>
  <circle cx="256.076" cy="293.718" r="165.729" fill="#e8f9fc" data-original="#E8F9FC"/>
  <path fill="#d9e7ec" d="M136.741 293.717c0-83.511 62.093-152.78 142.532-164.097-7.583-1.067-15.324-1.631-23.197-1.631-91.383 0-165.729 74.345-165.729 165.729 0 91.383 74.346 165.729 165.729 165.729 7.872 0 15.614-.564 23.197-1.631-80.44-11.318-142.532-80.588-142.532-164.099z" data-original="#D9E7EC"/>
  <path fill="#f27182" d="M227.357 293.718c0-5.464 1.441-10.596 3.952-15.046h-64.631c-8.31 0-15.046 6.737-15.046 15.046 0 8.31 6.737 15.046 15.046 15.046h64.631c-2.511-4.45-3.952-9.582-3.952-15.046z" data-original="#F27182"/>
  <path fill="#ed5469" d="M191.47 293.717c0-8.31 6.737-15.046 15.047-15.046h-39.839c-8.31 0-15.046 6.737-15.046 15.046 0 8.31 6.737 15.047 15.046 15.047h39.839c-8.31 0-15.047-6.736-15.047-15.047z" data-original="#ED5469"/>
  <path fill="#e8f9fc" d="M290.432 26.175H221.72c-6.62 0-12.037 5.417-12.037 12.037v12.539c0 6.62 5.417 12.037 12.037 12.037h68.712c6.62 0 12.037-5.417 12.037-12.037V38.212c0-6.621-5.416-12.037-12.037-12.037z" data-original="#E8F9FC"/>
  <path fill="#d9e7ec" d="M251.883 50.75V38.212c0-6.62 5.417-12.037 12.037-12.037h-42.2c-6.62 0-12.037 5.417-12.037 12.037V50.75c0 6.62 5.417 12.037 12.037 12.037h42.2c-6.62.001-12.037-5.416-12.037-12.037z" data-original="#D9E7EC"/>
  <path fill="#753679" d="M478.825 97.692l-53.009-47.328c-17.007-15.184-43.346-13.693-58.53 3.314l-8.511 9.532c-4.11 4.603-3.706 11.733.897 15.843l98.113 87.597c4.603 4.11 11.733 3.706 15.843-.897l8.511-9.532c15.184-17.007 13.693-43.345-3.314-58.529z" data-old_color="#62ddfc" data-original="#62DDFC"/>
  <path fill="#501078" d="M406.066 79.053c-4.603-4.11-5.007-11.239-.897-15.843l8.511-9.532c2.334-2.615 4.934-4.859 7.721-6.736-16.887-11.397-40.189-8.861-54.115 6.736l-8.511 9.532c-4.11 4.604-3.706 11.733.897 15.843l98.113 87.597c4.603 4.11 11.733 3.707 15.843-.897l8.511-9.532c1.565-1.753 2.943-3.61 4.155-5.539z" data-old_color="#00d2fc" data-original="#00D2FC"/>
  <path fill="#753679" d="M33.327 97.692l53.009-47.328c17.007-15.184 43.346-13.693 58.53 3.314l8.511 9.532c4.11 4.603 3.706 11.733-.897 15.843L54.367 166.65c-4.603 4.11-11.733 3.706-15.843-.897l-8.511-9.532c-15.184-17.007-13.693-43.345 3.314-58.529z" data-old_color="#62ddfc" data-original="#62DDFC"/>
  <path fill="#501078" d="M79.721 97.692l53.009-47.327c1.41-1.259 2.889-2.392 4.415-3.422-15.342-10.332-36.416-9.428-50.808 3.422l-53.01 47.327c-17.007 15.184-18.498 41.523-3.314 58.53l8.511 9.532c4.11 4.604 11.239 5.007 15.843.897l17.885-15.968c-10.547-16.784-7.785-39.372 7.469-52.991z" data-old_color="#00d2fc" data-original="#00D2FC"/>
  <circle cx="256.076" cy="293.718" r="30.719" fill="#7b6c79" data-original="#7B6C79"/>
  <path fill="#665e68" d="M256.076 293.717c0-11.345 6.187-21.266 15.36-26.586-4.522-2.623-9.766-4.133-15.36-4.133-16.939 0-30.719 13.781-30.719 30.719 0 16.939 13.781 30.719 30.719 30.719 5.593 0 10.838-1.51 15.36-4.133-9.173-5.319-15.36-15.24-15.36-26.586z" data-original="#665E68"/>
  <g>
    <path d="M255.997 120.331c-95.519 0-173.229 77.71-173.229 173.229s77.71 173.229 173.229 173.229 173.229-77.71 173.229-173.229-77.711-173.229-173.229-173.229zm121.104 103.31c2.074 3.592 6.663 4.814 10.245 2.745l9.255-5.343c10.173 19.644 16.347 41.677 17.442 65.017h-10.708c-4.143 0-7.5 3.358-7.5 7.5s3.357 7.5 7.5 7.5h10.708c-1.095 23.341-7.269 45.373-17.442 65.018l-9.255-5.343c-3.587-2.072-8.176-.843-10.245 2.745-2.071 3.587-.842 8.174 2.745 10.245l9.235 5.332c-12.281 19.051-28.537 35.307-47.588 47.588l-5.332-9.236c-2.07-3.587-6.66-4.816-10.245-2.745-3.587 2.071-4.816 6.658-2.745 10.245l5.343 9.255c-19.645 10.173-41.677 16.348-65.018 17.442v-10.708c0-4.142-3.357-7.5-7.5-7.5s-7.5 3.358-7.5 7.5v10.708c-23.34-1.095-45.373-7.269-65.017-17.442l5.343-9.255c2.071-3.587.842-8.174-2.745-10.245-3.589-2.072-8.175-.842-10.245 2.745l-5.333 9.236c-19.05-12.281-35.307-28.538-47.588-47.588l9.236-5.333c3.587-2.071 4.816-6.658 2.745-10.245-2.072-3.588-6.659-4.816-10.245-2.745l-9.255 5.344C105.22 346.433 99.045 324.4 97.95 301.06h10.708c4.143 0 7.5-3.358 7.5-7.5s-3.357-7.5-7.5-7.5H97.95c1.095-23.341 7.27-45.374 17.442-65.018l9.255 5.344c3.583 2.07 8.173.845 10.245-2.745 2.071-3.587.842-8.174-2.745-10.245l-9.236-5.333c12.281-19.051 28.538-35.307 47.588-47.588l5.333 9.237c2.069 3.585 6.655 4.818 10.245 2.745 3.587-2.071 4.816-6.658 2.745-10.245l-5.343-9.256c19.644-10.173 41.677-16.347 65.017-17.442v10.708c0 4.142 3.357 7.5 7.5 7.5s7.5-3.358 7.5-7.5v-10.708c23.341 1.095 45.374 7.269 65.018 17.442l-5.343 9.255c-2.071 3.587-.842 8.174 2.745 10.245 3.592 2.073 8.177.838 10.245-2.745l5.332-9.236c19.051 12.281 35.307 28.538 47.588 47.588l-9.236 5.332c-3.586 2.072-4.815 6.659-2.744 10.246z" data-original="#000000"/>
    <path d="M499.962 125.691c-.741-13.087-6.502-25.074-16.222-33.752l-9.686-8.648 6.083-6.814c6.607-7.399 5.966-18.735-1.435-25.343l-6.859-6.124c-7.384-6.592-18.723-5.98-25.343 1.435l-6.083 6.814-9.686-8.648c-20.135-17.977-51.143-16.223-69.12 3.915l-8.51 9.532c-6.875 7.7-6.204 19.558 1.496 26.433l32.238 28.783-13.019 14.582c-28.149-20.054-60.867-32.551-95.274-36.363V70.13h11.81c10.772 0 19.537-8.764 19.537-19.537V38.054c0-10.773-8.765-19.537-19.537-19.537h-26.856V7.5c0-4.142-3.357-7.5-7.5-7.5s-7.5 3.358-7.5 7.5v11.017h-26.855c-10.772 0-19.537 8.764-19.537 19.537v12.539c0 10.773 8.765 19.537 19.537 19.537h11.81v21.365c-35.215 3.903-67.75 16.824-95.225 36.414l-13.067-14.636 32.238-28.783c7.7-6.875 8.371-18.733 1.496-26.433l-8.511-9.532c-17.958-20.116-49.005-21.873-69.119-3.915l-9.686 8.648-6.083-6.813c-6.617-7.414-17.956-8.029-25.343-1.436l-6.859 6.124c-7.399 6.606-8.043 17.943-1.435 25.342l6.083 6.814-9.686 8.648c-9.72 8.678-15.48 20.665-16.222 33.752s3.63 25.648 12.308 35.368l8.511 9.532c6.877 7.701 18.733 8.369 26.433 1.497l32.238-28.782 13.1 14.672C72.341 193.98 52.675 241.513 52.675 293.56c0 51.522 19.274 98.621 50.977 134.49-12.804 8.272-20.879 22.613-20.879 38.328 0 25.158 20.468 45.625 45.625 45.625 20.931 0 38.507-13.896 43.904-33.157 25.538 11.581 53.877 18.034 83.695 18.034 29.2 0 57.658-6.223 83.706-17.997 5.409 19.242 22.977 33.12 43.894 33.12 25.158 0 45.625-20.467 45.625-45.625 0-15.684-8.044-29.998-20.803-38.277 28.639-32.403 46.242-73.016 50.083-116.38.365-4.126-2.683-7.767-6.809-8.132-4.139-.372-7.768 2.683-8.133 6.809-9.823 110.885-101.8 150.683-103.031 151.777-25.418 12.642-54.129 19.706-84.532 19.706-103.841 0-188.321-84.48-188.321-188.321 0-164.723 203.589-257.799 326.098-128.947 27.709 29.638 45.922 68.475 49.788 112.109.366 4.126 4.008 7.175 8.133 6.809 4.126-.366 7.174-4.006 6.809-8.133-3.886-43.859-21.843-84.909-51.065-117.491l13.036-14.601 32.238 28.783c7.706 6.879 19.562 6.197 26.433-1.497 9.153-10.255 22.116-21.954 20.816-44.901zM397.804 439.248c9.975 5.223 16.417 15.629 16.417 27.131 0 16.887-13.738 30.625-30.625 30.625-15.021 0-27.473-10.66-30.104-24.986 16.24-8.892 30.814-19.715 44.312-32.77zm-283.614 0c13.268 12.921 28.136 23.917 44.312 32.771-2.631 14.326-15.082 24.986-30.104 24.986-16.887 0-30.625-13.739-30.625-30.625 0-11.503 6.442-21.909 16.417-27.132zM43.281 62.324L50.14 56.2c1.21-1.082 3.075-.983 4.163.236l6.084 6.814c-7.404 6.61-5.505 4.915-11.259 10.052l-6.083-6.814c-1.083-1.215-.981-3.079.236-4.164zm6.012 98.574c-1.504 1.343-3.908 1.208-5.253-.297l-8.511-9.532c-6.01-6.731-9.036-15.442-8.521-24.529s4.505-17.401 11.236-23.411C78.825 66.896 68.45 76.16 91.252 55.801c13.922-12.429 35.495-11.226 47.939 2.715l8.511 9.532c1.344 1.504 1.207 3.91-.297 5.253-3.505 3.129-94.635 84.492-98.112 87.597zm65.708-13.817l-12.291-13.766 11.259-10.052 12.287 13.762c-3.876 3.215-7.636 6.575-11.255 10.056zm106.64-91.951c-2.459 0-4.537-2.078-4.537-4.537V38.054c0-2.459 2.078-4.537 4.537-4.537h68.712c2.459 0 4.537 2.078 4.537 4.537v12.539c0 2.459-2.078 4.537-4.537 4.537h-68.712zm41.902 35.246c-4.595-.167-9.719-.197-15.093 0V70.13h15.093zm194.148-33.941c1.103-1.234 2.97-1.301 4.163-.235l6.859 6.124c1.214 1.083 1.321 2.947.235 4.164l-6.083 6.813c-7.401-6.608-5.507-4.917-11.259-10.052zm-60.697 90.646c-3.712-3.576-7.824-7.208-11.255-10.056l12.287-13.762c.816.728 9.498 8.48 11.258 10.052zm70.961 13.52c-1.344 1.505-3.748 1.64-5.253.297-7.833-6.994-33.625-30.021-98.113-87.597-1.504-1.343-1.641-3.749-.297-5.253l8.51-9.532c12.472-13.968 33.977-15.182 47.94-2.715 17.872 15.957 35.321 31.536 53.009 47.328 6.731 6.009 10.722 14.324 11.236 23.411.913 16.127-7.973 23.914-17.032 34.061z" data-original="#000000"/>
    <path d="M263.497 256.083v-85.621c0-4.142-3.357-7.5-7.5-7.5s-7.5 3.358-7.5 7.5v85.621c-9.529 1.904-17.787 7.363-23.334 14.93H166.6c-12.433 0-22.547 10.114-22.547 22.546s10.114 22.546 22.547 22.546h58.583c2.473 3.377 5.5 6.38 9.03 8.836 3.399 2.365 8.073 1.527 10.44-1.872 2.366-3.4 1.527-8.074-1.872-10.44-18.591-12.935-9.616-42.29 13.216-42.29 22.655 0 31.855 29.322 13.216 42.29-3.399 2.366-4.238 7.04-1.872 10.44 2.367 3.4 7.04 4.238 10.44 1.873 27.662-19.249 18.587-62.291-14.284-68.859zm-96.898 45.023c-4.161 0-7.547-3.385-7.547-7.546s3.386-7.546 7.547-7.546h51.93c-1.023 5.09-.974 10.215.005 15.093h-51.935z" data-original="#000000"/>
  </g>
</svg>
