<?xml version="1.0" standalone="no"?>
<!DOCTYPE svg PUBLIC "-//W3C//DTD SVG 20010904//EN"
 "http://www.w3.org/TR/2001/REC-SVG-20010904/DTD/svg10.dtd">
<svg version="1.0" xmlns="http://www.w3.org/2000/svg"
 width="200.000000pt" height="200.000000pt" viewBox="0 0 200.000000 200.000000"
 preserveAspectRatio="xMidYMid meet">

<g transform="translate(0.000000,200.000000) scale(0.100000,-0.100000)"
fill="#000000" stroke="none">
<path d="M1457 1713 c-4 -3 -7 -136 -7 -293 0 -320 -1 -314 67 -308 37 3 38 4
43 47 l5 44 43 -82 43 -81 -36 0 c-20 0 -49 -7 -66 -15 -32 -17 -69 -69 -69
-97 0 -12 -8 -18 -25 -18 -18 0 -25 5 -25 20 0 18 -7 20 -60 20 -44 0 -60 4
-60 13 0 27 -41 50 -101 59 -69 9 -142 38 -178 71 -13 12 -36 50 -52 83 -52
113 -110 139 -242 105 -189 -49 -318 -147 -389 -298 -67 -142 -39 -275 71
-333 l36 -19 -87 -1 -88 0 -2 328 -3 327 -75 0 -75 0 -3 -392 -2 -392 57 -3
58 -3 3 -137 3 -138 49 0 50 0 0 140 0 140 105 0 105 0 0 -140 0 -140 50 0 49
0 3 138 3 137 55 5 55 5 3 58 c3 52 5 57 26 57 12 0 30 -6 39 -12 22 -17 37
-107 37 -228 0 -108 10 -132 64 -150 39 -12 71 -3 101 30 18 20 20 36 20 199
l0 176 -31 60 c-46 90 -96 112 -308 139 l-90 11 85 62 c46 33 102 79 123 102
l40 40 35 -41 c19 -23 55 -54 80 -70 l45 -28 -43 0 -42 0 3 -52 3 -53 88 -3
87 -3 0 -289 0 -290 390 0 390 0 0 345 0 345 -79 0 c-78 0 -79 0 -84 29 -3 15
-17 41 -30 57 -13 16 -54 85 -91 153 l-66 124 0 224 0 223 -48 0 c-27 0 -52
-3 -55 -7z"/>
<path d="M1030 1610 c0 -5 11 -10 25 -10 31 0 31 -5 2 -44 -42 -56 -42 -56 10
-54 36 1 40 2 16 5 -18 2 -33 7 -33 9 0 3 13 25 30 48 16 24 26 46 23 50 -10
10 -73 7 -73 -4z"/>
<path d="M963 1533 c22 -6 21 -12 -3 -43 -27 -35 -25 -40 18 -39 30 2 32 3 10
6 -33 5 -34 10 -8 43 26 34 25 40 -7 39 -17 -1 -21 -3 -10 -6z"/>
<path d="M880 1460 c12 -8 12 -11 -3 -28 -24 -26 -21 -32 11 -31 16 1 20 3 10
6 -22 6 -23 17 -3 33 22 18 18 30 -7 30 -18 0 -20 -2 -8 -10z"/>
<path d="M1066 1367 c-48 -27 -78 -81 -78 -142 0 -89 66 -155 154 -155 68 0
114 24 143 75 86 146 -72 306 -219 222z"/>
</g>
</svg>
