<svg xmlns="http://www.w3.org/2000/svg" xmlns:xlink="http://www.w3.org/1999/xlink" width="400" height="600">
  <defs>
    <path d="M360.178414 191.806644c-1.90838 2.07449-3.90019 3.87253-3.09363 4.27786 1.17122.58858 6.88586-.074 6.92047.55734.0683 1.24677.51036 2.23784-.21532 2.28389-2.33061.14789-11.1432.13771-12.62501.13771-1.48181 0 1.8012-3.85599 2.99688-4.98105 1.64914-1.55173 4.20631-4.1076 4.20631-5.75955 0-.82597-7.09187.73254-7.30163-.0981-.31187-1.23497-.87828-2.14621.0852-2.0927 1.927.10702 10.75335-.18577 12.15767.28714 1.00929.33988-2.40351 4.59666-3.13096 5.38743z" style="marker:none" id="reuse-0" color="#000" opacity=".78947365" overflow="visible"/>
  </defs>
  <defs>
    <linearGradient id="h" x1="564.2533" x2="555.76007" y1="340.31296" y2="338.27365" gradientUnits="userSpaceOnUse" xlink:href="#a"/>
    <linearGradient id="a">
      <stop offset="0" stop-color="#e9afaf"/>
      <stop offset="1" stop-color="#e9afaf" stop-opacity="0"/>
    </linearGradient>
    <linearGradient id="b">
      <stop offset="0" stop-color="#784421"/>
      <stop offset="1" stop-color="#784421" stop-opacity="0"/>
    </linearGradient>
    <linearGradient id="c" x1="793.66248" x2="788.45416" y1="917.29462" y2="917.05426" gradientUnits="userSpaceOnUse" xlink:href="#b"/>
  </defs>
  <path style="marker:none" fill="#00f" fill-opacity=".99607843" stroke="#030000" stroke-dashoffset=".59999999" stroke-linecap="round" stroke-width="1.5" d="M204.79274 359.73163l2.26881-6.40787c1.00552-2.83996 4.10139-4.31677 6.94135-3.31123l33.96167 12.02475c2.83996 1.0055 4.31677 4.10138 3.31123 6.94135l-2.26883 6.40785c-1.0055 2.83998-4.10139 4.31679-6.94134 3.31124l-33.96166-12.02475c-2.83998-1.00551-4.31678-4.10138-3.31123-6.94134z" color="#000" overflow="visible"/>
  <g transform="translate(-660.89227 -337.78981)">
    <g id="d" stroke="#030000" stroke-dashoffset=".59999999" stroke-linecap="round" color="#000">
      <path style="marker:none" fill="#c87137" fill-opacity=".99607843" stroke-width=".80000001" d="M915.67136 824.04516h6.24868v62.00609c-1.60222 1.92267-4.64646 1.92267-6.24868 0z" overflow="visible"/>
      <path style="marker:none" fill="url(#c)" stroke-width=".2" d="M785.89117 886.53192h6.24868v62.00609c-1.60222 1.92267-4.64646 1.92267-6.24868 0z" overflow="visible" transform="translate(129.78019 -62.48676)"/>
    </g>
    <use width="1200" height="700" transform="translate(-116.5535 -25.715705)" xlink:href="#d"/>
    <use width="1200" height="700" transform="translate(-106.46783 .24033365)" xlink:href="#d"/>
    <use width="1200" height="700" transform="translate(-30.282045 -23.552702)" xlink:href="#d"/>
    <path d="M794.30283 797.1278l94.9318 1.92266 35.08871 21.38971.00001 5.52768H807.52118l-13.21835-23.07204z" style="marker:none" fill="#c2560e" fill-opacity=".99607843" stroke="#030000" stroke-dashoffset=".59999999" stroke-linecap="round" stroke-width=".80000001" color="#000" overflow="visible"/>
    <path d="M783.49894 706.28167l2.9375 13.34375 11.21875-.28125 3.875 76.125h-3.125c-2.11352 0-4.62571 1.86169-3.8125 3.8125l13.52675 22.89698c38.9096 2.06363 89.08105.44783 115.33183.44783 7.85858-2.08898-29.60858-15.26358-29.60858-23.34481 0-2.11352-1.69898-3.8125-3.8125-3.8125h-.28125v-77.5l-6.78125-.75 11.96875-.3125 1.75-8.40625zm94.0625 11.0625l1.15625 22.6875c-.61372-.66242-1.49034-1.0625-2.46875-1.0625h-66.3125c-.064 0-.12442.0278-.1875.0312v-19.96875zm1.375 27.03125l.9375 18.15625h-68.5c-.58731 0-1.14541.14388-1.625.40625v-17.28125c.0631.003.12352.0312.1875.0312h66.3125c1.09491 0 2.07383-.50746 2.6875-1.3125zm-69.1875 24.9375c.47959.26237 1.03769.40625 1.625.40625h68.84375l1.3125 25.75h-71.78125z" style="marker:none" fill="#c87137" fill-opacity=".99607843" stroke="#030000" stroke-dashoffset=".59999999" stroke-linecap="round" stroke-width=".80000001" color="#000" overflow="visible"/>
  </g>
  <path style="marker:none" fill="#00f" fill-opacity=".99607843" stroke="#030000" stroke-dashoffset=".59999999" stroke-linecap="round" stroke-width="1.5" d="M160.44435 358.72417l42.97004-10.28977c7.32473-1.75401 14.49239 2.14104 16.071 8.7333 5.35596 22.36644-1.52389 37.93521 9.27021 70.49815 2.13287 6.43433 3.75033 9.91262-3.57439 11.66663l-42.97004 10.28977c-7.32473 1.75401-16.28858-1.95816-16.071-8.7333.76194-23.72598-3.91425-45.41265-16.06787-67.09932-3.31394-5.91334 3.04733-13.31145 10.37205-15.06546z" color="#000" overflow="visible"/>
  <path style="marker:none" fill="#f4d7d7" fill-opacity=".99607843" stroke="#030000" stroke-dashoffset=".59999999" stroke-linecap="round" stroke-width="1.5" d="M172.67065 332.8699l24.41871-1.60812c1.12732-.0742 2.09466.77356 2.1689 1.90089l1.7868 27.13187c.0742 1.12733-3.74262 9.48724-4.85813 9.6662l-16.48617 2.64488c-1.1155.17896-7.06995-9.30761-7.14419-10.43494l-1.7868-27.13188c-.0742-1.12732.77355-2.09466 1.90088-2.1689z" color="#000" overflow="visible"/>
  <g fill="#333">
    <g transform="translate(-155.1519686 43.53454)">
      <animate fill="freeze" additive="sum" attributeName="visibility" begin="-10ms" dur="2ms" from="visible" repeatCount="1" to="hidden" values="visible;hidden"/>
      <animateTransform fill="freeze" additive="sum" attributeName="transform" begin="e.begin+4800ms;ClosingEyes.begin+12400ms" dur="7600ms" from="-800 -400" repeatCount="1" to="-1600 -400" type="translate" values="45 0;55 -80;90 -160;140 -240;190 -320;240 -400;290 -500;330 -600"/>
      <animate fill="freeze" attributeName="visibility" begin="e.begin+4200ms" dur="3600ms" from="hidden" repeatCount="1" to="visible" values="visible;hidden"/>
      <use style="marker:none" color="#000" opacity=".78947365" overflow="visible" xlink:href="#reuse-0"/>
    </g>
    <g transform="translate(-155.1686586 68.04858)">
      <animate fill="freeze" additive="sum" attributeName="visibility" begin="-10ms" dur="2ms" from="visible" repeatCount="1" to="hidden" values="visible;hidden"/>
      <animateTransform fill="freeze" additive="sum" attributeName="transform" begin="e.begin+5200ms;ClosingEyes.begin+12800ms" dur="7600ms" from="-800 -400" repeatCount="1" to="-1600 -400" type="translate" values="45 0;55 -80;90 -160;140 -240;190 -320;240 -400;290 -500;330 -600"/>
      <animate fill="freeze" attributeName="visibility" begin="e.begin+5200ms" dur="3600ms" from="hidden" repeatCount="1" to="visible" values="visible;hidden"/>
      <use style="marker:none" color="#000" opacity=".78947365" overflow="visible" xlink:href="#reuse-0"/>
    </g>
    <g transform="translate(-163.3233186 55.07056)">
      <animate fill="freeze" additive="sum" attributeName="visibility" begin="-10ms" dur="2ms" from="visible" repeatCount="1" to="hidden" values="visible;hidden"/>
      <animateTransform fill="freeze" additive="sum" attributeName="transform" begin="e.begin+5000ms;ClosingEyes.begin+12600ms" dur="7600ms" from="-800 -400" repeatCount="1" to="-1600 -400" type="translate" values="25 0;35 -80;40 -160;50 -240;60 -320;75 -400;85 -500;97 -600"/>
      <animate fill="freeze" attributeName="visibility" begin="e.begin+5000ms" dur="3600ms" from="hidden" repeatCount="1" to="visible" values="visible;hidden"/>
      <use style="marker:none" color="#000" opacity=".78947365" overflow="visible" xlink:href="#reuse-0"/>
    </g>
  </g>
  <g transform="rotate(-5.1355679 -3953.19713089 4629.60549287)">
    <animateTransform additive="sum" attributeName="transform" begin="e.begin" dur="7800ms" keyTimes="0;.16;.32;.48;.64;.80;.96;1" repeatCount="1`" type="rotate" values="0 230 900;1 230 900;1 230 900;2 230 900;2 230 900;3 230 900;3 230 900;0 230 900"/>
    <g transform="rotate(6.4023584 310.40798403 2857.8284146)">
      <path d="M358.91665 643.82257c3.01272 0 6.75205 2.72702 5.43813 5.43813-4.56702 9.42348-8.96852 24.6326-5.09357 36.01092.97123 2.85188-2.42541 5.43813-5.43813 5.43813-3.01273 0-.34456-4.44801-.34456-7.46073V649.2607c0-3.01272 2.4254-5.43813 5.43813-5.43813z" style="marker:none" fill="#f4d7d7" fill-opacity=".99607843" stroke="#030000" stroke-dashoffset=".59999999" stroke-linecap="round" stroke-width="1.5" color="#000" overflow="visible"/>
      <path d="M357.55707 666.25492c0 30.03397-21.60826 54.38131-48.2634 54.38131-26.65515 0-48.26341-24.34734-48.26341-54.38131s21.60826-54.38131 48.26341-54.38131c26.65514 0 48.2634 24.34734 48.2634 54.38131z" style="marker:none" fill="#f4d7d7" fill-opacity=".99607843" stroke="#030000" stroke-dashoffset=".59999999" stroke-linecap="round" stroke-width="1.5" color="#000" overflow="visible"/>
      <path d="M258.91663 643.82257c3.01273 0 5.43813 2.42541 5.43813 5.43813v33.98832c0 3.01272-2.4254 5.43813-5.43813 5.43813-3.01272 0-6.24686-2.53599-5.43813-5.43813 1.88166-6.75235 6.0764-26.41886 0-33.98832-1.88597-2.34938 2.42541-5.43813 5.43813-5.43813z" style="marker:none" fill="#f4d7d7" fill-opacity=".99607843" stroke="#030000" stroke-dashoffset=".59999999" stroke-linecap="round" stroke-width="1.5" color="#000" overflow="visible"/>
      <use width="1200" height="700" transform="translate(42.47767 -.05359914)" xlink:href="#f"/>
      <path id="f" d="M305.30609 664.61102c0 10.33919-4.93033 18.72076-11.01221 18.72076s-11.01222-8.38157-11.01222-18.72076c0-10.33919 4.93034-18.72077 11.01222-18.72077 6.08188 0 11.01221 8.38158 11.01221 18.72077z" style="marker:none" fill="#fff" fill-opacity=".99607843" fill-rule="nonzero" stroke="#030000" stroke-dashoffset=".59999999" stroke-linecap="round" stroke-linejoin="miter" stroke-miterlimit="4" stroke-opacity="1" stroke-width="1.21500003" color="#000" display="inline" overflow="visible" visibility="visible"/>
      <use width="1200" height="700" transform="translate(42)" xlink:href="#g"/>
      <path id="g" d="M296.31347 655.16115c3.71188-1.05427 7.18391 3.64632 7.75497 10.49903.57105 6.85272-1.9751 13.2626-5.68698 14.31686-3.71189 1.05426-7.1839-3.64632-7.75497-10.49903-.003-.0274-.005-.055-.007-.0825l6.72768-1.82652z" style="marker:none" fill="#1a1a1a" fill-opacity=".99607843" fill-rule="nonzero" stroke="#030000" stroke-dashoffset=".59999999" stroke-linecap="round" stroke-linejoin="miter" stroke-miterlimit="4" stroke-opacity="1" stroke-width="1.15425003" color="#000" display="inline" overflow="visible" visibility="visible"/>
      <path id="i" d="M282.63862 660.68097c0-12.71112 6.19344-17.17356 11.68234-17.17356 5.48889 0 12.16976 4.0164 12.16976 16.72752l-11.92605.22302z" style="marker:none" fill="#e9afaf" fill-opacity=".99607843" fill-rule="nonzero" stroke="#030000" stroke-dashoffset=".59999999" stroke-linecap="round" stroke-linejoin="miter" stroke-miterlimit="4" stroke-opacity="1" stroke-width="1.15425003" color="#000" display="inline" overflow="visible" visibility="visible">
        <animate id="e" fill="freeze" attributeName="d" begin="0ms;e.end+5000ms" dur="7800ms" repeatCount="2" values="m 282.63862,660.68097 c 0,-12.71112 6.19344,-17.17356 11.68234,-17.17356 5.48889,0 12.16976,4.0164 12.16976,16.72752 l -11.92605,0.22302 z; m 282.48993,666.89934 c -1.10509,-16.09383 6.34213,-23.39193 11.83103,-23.39193 5.48889,0 13.38472,7.30057 12.02107,22.94589 l -11.92605,0.22302 z; m 283.49373,674.76749 c -4.36442,-23.58797 5.33833,-31.26008 10.82723,-31.26008 5.48889,0 15.2016,6.25025 11.64428,30.36435 l -11.19614,0.26204 z; m 282.48993,666.89934 c -1.10509,-16.09383 6.34213,-23.39193 11.83103,-23.39193 5.48889,0 13.38472,7.30057 12.02107,22.94589 l -11.92605,0.22302 z; m 283.49373,674.76749 c -4.36442,-23.58797 5.33833,-31.26008 10.82723,-31.26008 5.48889,0 15.2016,6.25025 11.64428,30.36435 l -11.19614,0.26204 z; m 282.48993,666.89934 c -1.10509,-16.09383 6.34213,-23.39193 11.83103,-23.39193 5.48889,0 13.38472,7.30057 12.02107,22.94589 l -11.92605,0.22302 z; m 283.49373,674.76749 c -4.36442,-23.58797 5.33833,-31.26008 10.82723,-31.26008 5.48889,0 15.2016,6.25025 11.64428,30.36435 l -11.19614,0.26204 z; m 282.48993,666.89934 c -1.10509,-16.09383 6.34213,-23.39193 11.83103,-23.39193 5.48889,0 13.38472,7.30057 12.02107,22.94589 l -11.92605,0.22302 z; m 283.49373,674.76749 c -4.36442,-23.58797 5.33833,-31.26008 10.82723,-31.26008 5.48889,0 15.2016,6.25025 11.64428,30.36435 l -11.19614,0.26204 z; m 287.14915,680.40337 c -13.85081,-21.9189 1.68291,-36.89596 7.17181,-36.89596 5.48889,0 18.15746,15.35041 8.22728,36.55198 l -8.07671,1.12122 z; m 287.14915,680.40337 c -13.85081,-21.9189 1.68291,-36.89596 7.17181,-36.89596 5.48889,0 18.15746,15.35041 8.22728,36.55198 l -8.07671,1.12122 z; m 287.14915,680.40337 c -13.85081,-21.9189 1.68291,-36.89596 7.17181,-36.89596 5.48889,0 18.15746,15.35041 8.22728,36.55198 l -8.07671,1.12122 z; m 287.14915,680.40337 c -13.85081,-21.9189 1.68291,-36.89596 7.17181,-36.89596 5.48889,0 18.15746,15.35041 8.22728,36.55198 l -8.07671,1.12122 z; m 282.63862,660.68097 c 0,-12.71112 6.19344,-17.17356 11.68234,-17.17356 5.48889,0 12.16976,4.0164 12.16976,16.72752 l -11.92605,0.22302 z"/>
      </path>
      <path d="M298.75732 702.62244h28.89006c2.89768.34418 2.15548 4.0135 0 4.07859h-28.89006c-2.89768-.34417-2.15547-4.0135 0-4.07859z" style="marker:none" fill="#f9f9f9" fill-opacity=".99607843" stroke="#030000" stroke-dashoffset=".59999999" stroke-linecap="round" stroke-width="1.5" color="#000" overflow="visible">
        <animate fill="freeze" attributeName="d" begin="e.begin+15000ms" dur="3800ms" keyTimes="0;.2;.3;.6;.7;.98;1" repeatCount="1" values="m 298.75732,702.62244 c 9.63002,0 19.26004,0 28.89006,0 2.89768,0.34418 2.15548,4.0135 0,4.07859 -9.63002,0 -19.26004,0 -28.89006,0 -2.89768,-0.34417 -2.15547,-4.0135 0,-4.07859 z; m 309.09585,702.14639 c 9.63002,0 2.83066,0.002 12.46068,0.002 2.89768,0.34418 2.15548,4.0135 0,4.07859 -9.63002,0 -2.83066,-0.002 -12.46068,-0.002 -2.89768,-0.34417 -2.15547,-4.0135 0,-4.07859 z; m 314.85344,698.59319 c 1.48412,-0.96704 4.08696,-0.99401 5.19876,0.81686 2.93725,2.22083 3.07903,7.67205 0.0619,9.20189 -1.18426,0.59138 -3.41143,0.91821 -5.2729,0.0465 -4.1367,-0.71817 -3.81139,-8.1029 0.0123,-10.06526 z; m 314.85344,698.59319 c 1.48412,-0.96704 4.08696,-0.99401 5.19876,0.81686 2.93725,2.22083 3.07903,7.67205 0.0619,9.20189 -1.18426,0.59138 -3.41143,0.91821 -5.2729,0.0465 -4.1367,-0.71817 -3.81139,-8.1029 0.0123,-10.06526 z; m 317.28691,692.84787 c 1.48412,-0.96704 3.11157,-0.54254 4.22337,1.26833 2.93725,2.22083 3.98529,12.7006 0.96816,14.23044 -1.18426,0.59138 -5.77577,1.18351 -7.63724,0.3118 -4.1367,-0.71817 -4.71766,-13.13145 -0.89397,-15.09381 z; m 314.85344,698.59319 c 1.48412,-0.96704 4.08696,-0.99401 5.19876,0.81686 2.93725,2.22083 3.07903,7.67205 0.0619,9.20189 -1.18426,0.59138 -3.41143,0.91821 -5.2729,0.0465 -4.1367,-0.71817 -3.81139,-8.1029 0.0123,-10.06526 z; m 298.75732,702.62244 c 9.63002,0 19.26004,0 28.89006,0 2.89768,0.34418 2.15548,4.0135 0,4.07859 -9.63002,0 -19.26004,0 -28.89006,0 -2.89768,-0.34417 -2.15547,-4.0135 0,-4.07859 z"/>
      </path>
      <path fill="url(#h)" stroke="#030000" stroke-dashoffset=".59999999" stroke-linecap="round" stroke-width=".80000001" d="M560.93883 320.27277l5.28734 30.76271-13.45868.48067" color="#000" overflow="visible" transform="rotate(-6.4023584 3460.47412763 2681.64727311)" style="marker:none"/>
      <use width="1200" height="700" transform="translate(42.184105 -.70836035)" xlink:href="#i"/>
    </g>
    <path fill="#1a1a1a" stroke="#000" d="M504.97231 670.93553c4.13027-24.45417 6.17741-27.25523 11.93422-34.12152 5.12992-6.11858 15.25-12.9642 24.03337-14.93485 12.13575-2.72279 23.13416 12.17735 47.66854-3.51547 2.3663-1.51354 15.03503 26.7384 13.35206 62.64171-.18067 3.85444-2.29463-10.46391-4.02028-13.91521-4.13814-8.27627-3.07489-9.55682-9.60334-16.08527-2.94123 9.39038-5.94548 3.53623-9.83984 2.2336-8.90294-2.97796-15.87086 6.51991-21.35523 14.1291-2.80481-10.5688-.50684-13.08387 13.23383-20.11338 2.84585-1.4559-13.46872 12.18923-27.2215 4.71202-16.76019-9.11231-33.78304 35.78933-34.94794 38.89575-3.23056-7.43522-3.40216-8.41266-3.23389-19.92648z"/>
    <g stroke="#030000" stroke-dashoffset=".59999999" stroke-linecap="round" stroke-width="1.5" color="#000">
      <path d="M548.67834046 599.6291607c-20.70441894 3.07810903-36.65705095 21.53039576-38.64427418 44.3249658l-49.60474718 4.71608274c-2.06193581.19603038-4.13978326-.19962247-4.4897438 1.33061741-.46177417 2.0191122 1.64998134 3.32143492 3.7198815 3.24679938l57.63117489-2.62978156c.8068767-.02907974 37.79268557-1.48239198 37.79268557-1.48239198l45.29876374-1.61098016c-.99434816-27.57578847-22.09097156-49.1966509-47.09301716-48.2951097-1.56262496.05634473-3.09501796.17445713-4.61072338.39979807z" style="marker:none" fill="#d45500" fill-opacity=".99607843" stroke-width="1.47" overflow="visible"/>
      <path d="M563.93170172 624.50316776l5.4447351-4.7199171-12.36685488-7.49627615-10.6158847 1.0112198-6.3372509 13.56281597 7.70876614 13.12364993 14.21374157.88256414 2.8850944-3.7236272-14.29759535-1.54344018-4.72986754-10.81556809 3.29441036-5.79009938 6.52486782-1.49940885z" style="marker:none" fill="red" stroke-width="1.47" overflow="visible"/>
    </g>
  </g>
  <path style="marker:none" fill="#502d16" fill-opacity=".99607843" stroke="#030000" stroke-dashoffset=".59999999" stroke-linecap="round" stroke-width="1.5" d="M172.73521 443.88937l51.34854-6.81691c2.98653-.39648 5.71002 1.68863 6.10651 4.67516l2.65618 20.00775c.39648 2.98652-1.68192 5.76436-4.67516 6.10651l-47.02254 5.3749c-2.99323.3421-5.04599-1.85526-6.1065-4.67516l-6.98219-18.56574c-1.06051-2.81991 1.68864-5.71003 4.67516-6.10651z" color="#000" overflow="visible"/>
  <path style="marker:none" fill="gray" fill-opacity=".99607843" stroke="#030000" stroke-dashoffset=".59999999" stroke-linecap="round" stroke-width="1.5" d="M276.60237 526.59626c7.64115 4.16075 20.32614 8.81239 29.89311 11.76123 9.12679 2.81317 8.04222 4.47077 8.04222 4.47077l-.59932 3.88078c-.45981 2.97742-2.91269 5.19347-5.91278 4.91788l-44.31313-4.07055c-3.00008-.27558-5.19346-2.91268-4.91788-5.91277l.59933-6.52444c.27558-3.00009 14.56256-9.96363 17.20845-8.5229z" color="#000" overflow="visible"/>
  <path style="marker:none" fill="#502d16" fill-opacity=".99607843" stroke="#030000" stroke-dashoffset=".59999999" stroke-linecap="round" stroke-width="1.5" d="M204.83321 454.20856c2.89556-.832.67455 2.25327 1.44112 5.16684l14.15471 53.79932c.76656 2.91356.61273 6.3771-2.28284 7.2091l-15.33162 4.40537c-2.89556.832-5.61226-.9265-6.72844-3.72481l-20.88407-52.35732M223.16372 444.78184c1.88202-2.35255 5.29107-2.73137 7.64361-.84937l45.46004 36.36747c2.35254 1.882 2.73134 5.29105.84933 7.64361l-8.44727 10.55925c-1.88202 2.35256-5.29108 2.73138-7.64361.84937l-45.46004-36.36746c-2.35254-1.882-8.98002-4.81038-7.09801-7.16294" color="#000" overflow="visible"/>
  <path style="marker:none" fill="#502d16" stroke="#030000" stroke-dashoffset=".59999999" stroke-linecap="round" stroke-width="1.5" d="M275.49572 481.68001c3.00994-.1296 5.53743 5.31356 5.66704 8.32347-.95737 8.41157-5.03469 27.94519-6.38708 41.69234-4.36737 3.15906-9.2154 4.63579-13.8231 2.26718-.84465-29.15596-3.84971-33.87099-4.23878-42.90678" color="#000" overflow="visible"/>
  <path style="marker:none" fill="#00f" fill-opacity=".99607843" stroke="#030000" stroke-dashoffset=".59999999" stroke-linecap="round" stroke-width="1.5" d="M162.11504 371.76841l-5.15861 35.65638c-.43137 2.98169-3.17907 5.03481-6.16075 4.60344l-6.72762-.97332c-2.98168-.43138-5.03481-3.17907-4.60343-6.16076l5.1586-35.65638c.43138-2.98168 9.42774-9.12049 12.40943-8.68911" color="#000" overflow="visible"/>
  <g fill-opacity=".99607843" stroke="#030000" stroke-dashoffset=".59999999" stroke-linecap="round" stroke-width="1.5" color="#000">
    <path d="M245.52376067 362.14101237c2.89569383-.83157482 9.67352877 2.99970497 10.50510359 5.89539881l6.75459742 23.5209236c.8315658 2.89568294-.83014973 5.89633055-3.72584357 6.72790536l-3.92012841 1.12576197c-2.8956929.83156485-5.600192-.93216233-6.72790442-3.72585353l-7.37441435-18.2686639" style="marker:none" fill="#00f" overflow="visible"/>
    <path d="M250.8002613 411.29725368l-1.28472693-12.16814647c-.31631835-2.9960704 1.84101386-5.66272448 4.8370852-5.9790528l4.73206571-.49961407c2.99607134-.31632831 5.91521814 1.82503829 5.97905279 4.8370852l.26506986 12.50804057c.06382375 3.01205592-.82134969 5.3228612-3.81744 5.63917766l-4.7320657.49961408c-2.99607134.3163283-5.66272448-1.84101387-5.97906274-4.83708615z" style="marker:none" fill="#f4d7d7" overflow="visible"/>
  </g>
  <path style="marker:none" fill="#b3b3b3" fill-opacity=".99607843" stroke="#030000" stroke-dashoffset=".59999999" stroke-linecap="round" stroke-width="1.5" d="M242.47661 440.58092h5.43813c2.63614 0 4.75837 2.12223 4.75837 4.75837v114.88048c0 2.63613-2.12223 4.75836-4.75837 4.75836h-5.43813c-2.63613 0-4.75836-2.12223-4.75836-4.75836V445.33929c0-2.63614 2.12223-4.75837 4.75836-4.75837z" color="#000" overflow="visible"/>
  <path style="marker:none" fill="#807f7f" stroke="#030000" stroke-dashoffset=".59999999" stroke-linecap="round" stroke-width="1.5" d="M259.28118 576.31047l-34.6876-20.13122c-2.60569-1.51224-12.68197 3.03246-13.84015 5.81366l-2.09053 5.02015c-1.15818 2.7812-1.12684 9.51299 1.72799 10.47548l41.1766 13.88254c2.85485.9625 7.39464-.14844 8.55282-2.92965l2.09053-5.02014c1.15818-2.78121.60351-5.63951-2.92966-7.11082z" color="#000" overflow="visible"/>
  <path style="marker:none" fill="#b3b3b3" fill-opacity=".99607843" stroke="#030000" stroke-dashoffset=".59999999" stroke-linecap="round" stroke-width="1.5" d="M114.61997 442.28033h14.95486l.33988 121.33829c-.90636 4.41848-12.00921 4.75836-14.95486 0z" color="#000" overflow="visible"/>
  <path style="marker:none" fill="#502d16" fill-opacity=".99607843" stroke="#030000" stroke-dashoffset=".59999999" stroke-linecap="round" stroke-width="1.5" d="M106.32391 445.63376l.92011 15.4426 156.38043.20558.24033-15.92327z" color="#000" overflow="visible"/>
  <path style="marker:none" fill="#502d16" stroke="#030000" stroke-dashoffset=".59999999" stroke-linecap="round" stroke-width="1.5" d="M220.99559 514.1931c1.16115 8.38582 7.18508 41.64809 7.79403 48.84184-4.09707 4.43736-12.76048 1.90504-17.09788.33405-7.02329-17.39417-12.93966-34.15035-15.56008-42.80658" color="#000" overflow="visible"/>
  <path style="marker:none" fill="#502d16" stroke="#000" stroke-dashoffset=".59999999" stroke-linecap="round" stroke-width="1.5" d="M106.97385 461.42366l-4.56632-13.21835-.72101-14.90068 5.52768 17.06369z" color="#000" overflow="visible"/>
  <path style="marker:none" fill="#502d16" stroke="#030000" stroke-dashoffset=".59999999" stroke-linecap="round" stroke-width="1.5" d="M99.52175 430.30771l147.31058-.0412 25.66825 22.98045-166.11078.31073z" color="#000" overflow="visible"/>
  <path style="marker:none" fill="#00f" fill-opacity=".99607843" stroke="#030000" stroke-dashoffset=".59999999" stroke-linecap="round" stroke-width="1.5" d="M154.96257 403.99611l13.42388 20.02809c1.67736 2.50258 1.04119 5.86274-1.45331 7.55212l-3.37699 2.28702c-2.4945 1.68937-4.21558 1.17703-5.62945-.73231l-16.78854-22.67175c-1.79289-2.42117-2.72353-3.94008-.22903-5.62945" color="#000" overflow="visible"/>
  <path style="marker:none" fill="#fff" fill-opacity=".99607843" stroke="#000" stroke-dashoffset=".59999999" stroke-linecap="round" stroke-width=".1" d="M149.20991 432.13012l26.38606-.46859 12.83517 19.03552H160.591z" color="#000" overflow="visible"/>
  <g fill-opacity=".99607843" stroke-dashoffset=".59999999" stroke-linecap="round" color="#000" transform="matrix(1.40303 -.1069 .08794 1.15428 -612.29126257 -53.67484334)">
    <path d="M528.67328 448.23669c.58667-.24033 1.59393.0451 1.66989.10515v.99422h-1.66989z" style="marker:none" fill="#ffb200" stroke="#000" stroke-width=".1" overflow="visible"/>
    <rect width="1.9226695" height="27.638374" x="528.49377" y="450.2933" stroke-width=".2" ry="0" style="marker:none" fill="#ff0" stroke="#030000" overflow="visible"/>
    <path style="marker:none" fill="#b3b3b3" stroke="#030000" stroke-width=".2" d="M528.49811 449.22159h1.9342072v1.16425H528.49811z" overflow="visible"/>
    <path d="M529.03454 479.37367l.39054 1.35188.34548-1.39694" style="marker:none" stroke="#000" stroke-width=".1" overflow="visible"/>
    <path d="M528.55387 477.82652l.48067 1.57719.33046.13519.4356-.15019.57079-1.56216" style="marker:none" fill="#c87137" stroke="#000" stroke-width=".1" overflow="visible"/>
  </g>
  <path style="marker:none" fill="#f4d7d7" fill-opacity=".99607843" stroke="#030000" stroke-dashoffset=".59999999" stroke-linecap="round" stroke-width="1.5" d="M163.76772 419.15263l7.66593-.40411c3.00856-.15859 5.3412 2.63202 5.22574 5.64252l-.18235 4.75488c-.11545 3.01052-2.63922 5.46369-5.64253 5.22574l-7.95731-.63046c-3.00331-.23796-5.68202-1.71847-5.56656-4.72899l.18236-4.75486c.11546-3.01051 3.26616-4.94613 6.27472-5.10472z" color="#000" overflow="visible"/>
  <path style="marker:none" fill="red" stroke="#000" stroke-dashoffset=".59999999" stroke-linecap="round" stroke-width=".38288447" d="M190.88358 447.26577l23.63949.26745s.45556 2.54401 2.30018 3.10876c1.9553.59864 4.17276.68917 6.1337.1092 2.39359-.70793 3.0364-3.78071 3.0364-3.78071l23.33553.10865-11.89043-17.08468-38.09711.29248z" color="#000" overflow="visible"/>
  <path style="marker:none" fill="#fff" stroke="#000" stroke-dashoffset=".59999999" stroke-linecap="round" stroke-width=".38288447" d="M200.62595 431.29339l35.15044-.45888 10.57997 14.96572c-8.3915-.74616-15.71643-1.08987-21.77483.65976 0 0-.36883 2.08587-3.01405 2.66115-1.54511.33603-1.64418.4258-3.08896-.21702-1.29079-.57409-2.05509-2.28482-2.05509-2.28482-10.48837-1.37223-18.09461-.92914-23.71014-.29725z" color="#000" overflow="visible"/>
  <path style="marker:none" fill="#fff" stroke="#000" stroke-dashoffset=".59999999" stroke-linecap="round" stroke-width=".38288447" d="M217.07701 445.4696c-4.14885-2.53237-7.41012-4.35887-11.20332-4.32106-4.11251.0411-10.07148 2.25078-13.06741 4.00518l7.72624-9.98745" color="#000" overflow="visible"/>
  <path style="marker:none" fill="none" stroke="#000" stroke-dashoffset=".59999999" stroke-linecap="round" stroke-width=".38288447" d="M221.7977 448.37368c.77331-1.47611 5.70808-4.74414 9.21234-5.69302 1.79975-.48733 4.4592-.33769 6.58472-.012 1.33873.20507 5.17094 1.74427 6.53924 2.05784" color="#000" overflow="visible"/>
  <path style="marker:none" fill="#fff" stroke="#000" stroke-dashoffset=".59999999" stroke-linecap="round" stroke-width=".38288447" d="M247.2404 444.88247c-3.81337-5.12953-6.98846-9.55744-10.80184-14.68698-6.17157-2.64068-14.34895-2.28011-19.95489-.13832l3.35846 18.49865c2.26402-1.26126 3.45149-2.97554 5.71554-4.23679 5.79171-4.45237 14.72501-2.59741 21.68273.56344z" color="#000" overflow="visible"/>
  <path style="marker:none" fill="#fff" stroke="#000" stroke-dashoffset=".59999999" stroke-linecap="round" stroke-width=".38288447" d="M192.09356 444.21725l7.68597-12.81528c5.44197-3.93024 11.27274-2.15806 17.21198-1.29823l2.73212 18.43125c-2.13656-3.10522-1.79803-3.63342-5.48167-5.99921-6.62735-3.07338-11.63937-3.48546-18.17377-.0335z" color="#000" overflow="visible"/>
  <path style="marker:none" fill="none" stroke="#000" stroke-dashoffset=".59999999" stroke-linecap="round" stroke-width=".38288447" d="M195.09919 445.60001c2.99592-1.75439 7.09978-3.15354 11.21229-3.19455 3.79319-.0377 9.88449 2.22256 12.17273 5.87225" color="#000" overflow="visible"/>
  <path style="marker:none" fill="#fff" stroke="#000" stroke-dashoffset=".59999999" stroke-linecap="round" stroke-width=".38288447" d="M199.73215 444.9439s4.765-1.06454 7.17563-.95689c2.13893.0955 6.26577 1.4131 6.26577 1.4131M227.54248 445.19801s3.02408-1.7747 6.7848-1.76803c1.64865.003 7.65854 1.5913 7.65854 1.5913" color="#000" overflow="visible"/>
  <path fill="none" stroke="#000" stroke-width=".60000002" d="M181.81594 446.5289c-4.32149 1.45105-4.97918.51385-7.47744.50982-.79508-.001-1.58836-.25208-2.37918-.16993-1.64077.17042-3.11247 1.2492-4.75837 1.35953-1.57066.10528-2.10786-.76851-4.67339-.67977"/>
</svg>
